<?xml version="1.0" encoding="utf-8"?>
<!-- Generator: Adobe Illustrator 19.0.0, SVG Export Plug-In . SVG Version: 6.00 Build 0)  -->
<svg version="1.1" xmlns="http://www.w3.org/2000/svg" xmlns:xlink="http://www.w3.org/1999/xlink" x="0px" y="0px"
	 viewBox="0 0 272 234" style="enable-background:new 0 0 272 234;" xml:space="preserve">
<style type="text/css">
	.st0{fill:#25334E;}
	.st1{display:none;}
	.st2{display:inline;fill:#010101;}
	.st3{display:inline;}
	.st4{fill:#010101;}
</style>
<g id="Layer_2">
	<rect id="XMLID_1_" class="st0" width="272" height="234"/>
</g>
<g id="Layer_1" class="st1">
	<path id="XMLID_18_" class="st2" d="M135.6,187.8l-0.2,0L135.6,187.8l-0.5,0l-0.2,0c0,0,0,0,0.1,0l-0.1,0c-0.4,0.1-1.2,0.1-1.5,0.1
		c-0.3,0-0.7,0-1,0c0.2,0,0.6,0,0.5,0c-0.5-0.1-0.7-0.2-1.5-0.2l0.5,0l-1.1,0c-0.4-0.1,0.6,0,0.7-0.1c-0.9,0-1.5-0.3-1.9-0.2
		c0-0.1-0.1-0.2-0.7-0.3c0.4,0.1-0.3,0,0,0.1c-0.2,0-0.6-0.1-0.7,0l0.1,0c-0.9-0.2-1.3-0.1-1.7-0.1c-1.1-0.1-1.6-0.2-2.6-0.2
		c0,0-0.3-0.2-0.6-0.2c-0.2,0.1-1,0-1.1,0.1c0.7,0.1,0.5-0.1,0.9-0.1c0.3,0.1,0,0.1,0.5,0.2c-0.4-0.1-1.6,0-2-0.1l0.1,0
		c-0.6,0-0.8-0.3-1.8-0.1l-0.5,0.1c0,0,0,0,0,0c-0.8,0-0.6-0.1-1.5,0.1c0.1,0,0,0,0.1,0c-0.5,0-1,0.1-1.4,0.2c-0.2,0,0-0.1,0.2-0.1
		c-0.9,0.1-1.9,0.3-2.4,0.4l-0.6,0c0.3-0.1,0.8-0.2,0.6-0.2c-0.3,0-0.3,0.1-0.7,0.1c0.1-0.1,0.3-0.1,0.5-0.2c-1,0-0.2,0.2-0.9,0.1
		c-0.3,0-0.5,0.1-0.5,0.2l-0.6,0c0,0.1-0.7,0.1-1.1,0.2c0,0,0.4,0,0.5,0c0,0.1-0.5,0.1-0.8,0.2c-0.1-0.1-2,0.2-1.6,0
		c-1.3,0.2-3.2,0.3-4.1,0.4c-0.3,0-0.9,0-0.5-0.1c-1.1,0-1.7,0.2-2.7,0.1c-0.1,0,0.5,0,0.5,0c-0.7,0-1.3-0.1-2.4-0.2
		c0.2,0,0.2,0,0.3,0c0,0-0.5,0-0.7,0c-0.2,0,0.2,0,0.1,0c-2.1-0.3-3.7-0.4-5.7-1.2c0.6,0.2,0.8,0.2,0.8,0.2l-0.5-0.2
		c-0.2,0-0.6-0.2-1-0.3c0,0-0.2-0.1,0-0.1c-1-0.6-1.7-0.6-2.8-1.5c0.5,0.3,1,0.5,1.5,0.7c-0.1-0.1-0.2-0.2-0.3-0.3
		c0.2,0.1,0.5,0.2,0.7,0.3c-0.3-0.2-0.7-0.3-0.7-0.4c0.1,0,0.3,0.1,0.3,0.1c-0.3-0.2-0.4-0.2-0.7-0.4c0.8,0.3,2.2,1.1,3,1.3
		c0.1,0-0.1,0-0.2,0c0.3,0.1,0.5,0.2,0.9,0.3c0.3,0-0.2-0.1-0.4-0.2c0.1,0,0.2,0,0.4,0.1c0,0.1,1.3,0.4,1.6,0.6
		c1.3,0.3-0.2-0.2,1.1,0.1l0.4,0.1l2.6,0.2l-0.2,0c-0.1,0,0.1,0.1,0.2,0.1c0.7,0.1,1.2,0,1.6,0.1l2.8-0.2c0.2,0.1-1.1,0.1-1.5,0.2
		l0.8,0c-0.5,0-0.7,0.1-1,0.1c0.7,0,0.9-0.1,1.6-0.1c0,0,0,0,0.3,0l0.1-0.1c0,0,0,0,0.1,0l1.1-0.1c-0.2,0-0.3-0.1-0.6-0.1
		c0.1,0-0.1,0.1-0.4,0.1c0.3-0.1-0.3,0-0.3-0.1c0.6,0,1.3-0.1,1.7-0.1l0.1,0.1c0.6,0,1.2-0.1,1.6-0.1l-0.1,0c0.7,0,1.4-0.1,2-0.1
		c0.6-0.1,1.4-0.3,1.8-0.4c0.3-0.1,1.8-0.1,2.5-0.3c0,0-0.5,0.1-0.7,0.2c0.5,0,0.8-0.2,1-0.1c-1,0.1,0.1,0.1-0.4,0.1
		c0.5,0,1-0.1,1.2-0.2c-0.8,0.1,0.3-0.1-0.5,0c0.6-0.1,1.4-0.2,2.2-0.3c0,0,0.1,0.1,0.4,0l0.2-0.1c0.3,0-0.7,0.1,0,0.1
		c0.7-0.2,2.2-0.1,2.5-0.2c0.6,0.1-1,0.1-0.2,0.2c-0.5,0.1-1.1,0-1.3,0.1c0.5-0.1,0.2,0.1,0.5,0l0.5-0.1h-0.1c0.9-0.1,2.3-0.1,3.4,0
		c1,0,1.6-0.1,2.8,0c-0.3,0,0.9,0.1,0.2,0.2c0.5,0.1,1,0.1,1.1,0.1c-0.5-0.1-0.2,0-0.5-0.1c0.3,0,0.9,0,1.1,0.1c-0.1,0-0.1,0-0.1,0
		c0.5,0.1,0.3,0,0.7,0c0.1,0.1,0.9,0.1,1.2,0.2l0.5,0c-0.3,0,0.5,0.1,0.6,0.1c0.4,0,0.7-0.1,1.3,0c-0.2,0,0.5,0.1,0.5,0.1
		c1,0.1,1.6-0.1,2.5,0c0,0-0.2,0.1,0.1,0.1c0.2,0,0.6,0,0.8,0h0h0c0.1,0,0.2,0,0.2,0c0.4-0.1,0.6-0.2,1.3-0.3
		c-0.1-0.1-0.7,0-0.9,0.1l-0.2,0.1c-0.2-0.1-0.7,0-0.8,0c0.4-0.1,1.7-0.2,2.4-0.4c-0.4,0-1.4,0.1-2.3,0.1l0.4,0l-0.5,0l0.4,0.1
		c-0.4,0-0.8,0-1.2,0c0.5,0,0.6,0.1,0.4,0.1c-0.5-0.1-0.5,0.1-0.9,0c0.2,0,0.5,0,0.3,0.1c-0.8-0.1-1-0.1-1.7-0.2c0.1,0.1-0.9,0-1,0
		l0.3,0l-0.7,0c-0.6-0.1,0.6-0.1-0.4-0.2c-0.9-0.1-0.9,0-1.7,0c0.3,0,0.8,0,1.4,0l-0.4-0.1c0.2,0,1,0.1,1.4,0.1
		c-0.7,0,0.3,0.1,0.6,0.1c0.1-0.1-0.4-0.1,0.1-0.1c-0.5,0-0.5,0-1.1-0.1c1.3,0.1,1.2-0.1,2.3,0c-0.5,0,0.2,0.1,0.2,0.1
		c0.2,0,0.7,0,0.9,0l-0.2-0.1c0.6,0,0.9,0.2,1.6,0c0.1-0.1-0.6,0-0.5,0c1-0.1,1.3,0,2.2,0c0,0,0-0.1,0.3-0.2
		c-0.1,0.1,0.1,0.1-0.2,0.2c0.3,0,0.6-0.1,0.8-0.2c-0.6,0.1,0.2-0.1,0.2-0.2c0.3-0.1,0,0.1-0.2,0.1c0.2-0.1,0.5,0,0.6-0.2
		c0.1,0.1-0.5,0.4-0.9,0.5l0.3-0.1c-0.2,0.1-0.2,0.1-0.5,0.1c0.3,0,0.3,0,0.2,0.1c0,0,0,0,0,0c-0.2,0-0.4,0.1-0.4,0.1
		c-0.2,0.1,0.4,0,0.5,0l0.4-0.1c0.4-0.2,0.7-0.4,1-0.7c0.2-0.1,0.3-0.2,0.5-0.3c0.1,0,0.1-0.1,0.2-0.1l0.1-0.1c0,0,0.2-0.1,0.2-0.1
		c0.1-0.1,0-0.1,0.1-0.1c0.4-0.2,0.8-0.5,0.6-0.2c0,0-0.1,0-0.2,0.1c0,0,0,0,0,0.1l0,0c0.4-0.3,0.7-0.5,0.7-0.5
		c-0.6,0.6,0.1,0.1,0.1,0.3c0.2-0.2,0.4-0.4,0.6-0.5c-0.4,0.3-0.1,0,0.1-0.2c0.1,0,0.5-0.4,0.6-0.6l0,0c0.2-0.2,0.4-0.5,0.4-0.7
		c0,0-0.1-0.3-0.2-0.4c0,0.3-0.1,0.1-0.1,0.1c0,0,0-0.1,0-0.1c0,0,0,0.1-0.1,0.1c0.1,0.3-0.2,0.6-0.2,0.8c0.1-0.1,0.1-0.2,0.2-0.3
		c0,0.2-0.2,0.5-0.6,0.8l-0.2,0.1c-0.1,0.1-0.2,0.2-0.3,0.3c0.1-0.2,0-0.1,0.4-0.4c-0.1,0-0.4,0.3-0.6,0.5l-0.1,0.2
		c0-0.1-0.6,0.3-0.2,0c0.2-0.2,0.4-0.3,0.6-0.5l-0.2,0.1c0.2-0.1,0.3-0.3,0.5-0.4l-0.1,0.1c0.3-0.3,0.4-0.4,0.5-0.4
		c0.1,0,0.2-0.1,0.3-0.4c0-0.2,0-0.3,0-0.6c0.1,0.2,0.1,0,0.2,0.1c0-0.3-0.2-0.3-0.3-0.5c0-0.1,0-0.2,0.2,0.1c0.2,0-0.3-0.3-0.2-0.4
		c-0.4-0.5-0.8-0.6-1.1-0.8c-0.3-0.2-0.7-0.3-1.4-1l0.1,0c-1-0.7-1.6-1.2-2.4-2.1l-0.3-0.5c-0.1-0.2-0.3-0.4-0.3-0.6
		c0.2,0.3,0.8,0.9,0.6,0.6c0.1,0.2,0.1,0.3,0.2,0.4c0.1,0.1,0.1,0.2,0.2,0.3l0.5,0.5c0.1,0-0.1-0.1-0.1-0.2c0.2,0.2,0.3,0.3,0.6,0.6
		c0,0-0.3-0.3,0-0.1l0.3,0.4c0.6,0.4,0.4,0.1,1,0.6c-0.2,0-0.5-0.2-0.7-0.3c0.3,0.2-0.4-0.3-0.2,0c0.5,0.3,0.6,0.5,1.2,0.9
		c-0.1,0-0.1,0-0.2-0.1l0.7,0.6c-0.1-0.2,0.7,0.4,0.7,0.3c-0.7-0.7-0.6-0.4-1.5-1.2c0.3,0.2,0.7,0.4,0.9,0.5c0,0,0,0,0,0
		c0.2,0,0.1-0.1,0.2-0.2c-0.5-0.3-0.7-0.5-1.3-0.9c-0.2,0,0.2,0.3,0.5,0.5l-0.5-0.3l0.1,0c-0.4-0.3-0.8-0.6-1.1-1
		c0.2,0.2,0.3,0.2,0.5,0.3c-0.1-0.1-0.3-0.3-0.4-0.4c0,0.1-0.1,0.1-0.2,0c-0.3-0.3-0.6-0.6-0.8-0.9c-0.1-0.2-0.3-0.5-0.4-0.7
		l-0.1-0.1c0,0.2-0.6-0.7-0.8-1.1c0.1,0-0.1-0.4-0.1-0.6l0.3-0.1c0.1-0.1-0.2-0.1-0.7-0.1c0,0,0,0.1,0,0.2c0.4,0.9,0.3,0.5,0.6,0.9
		c0.2,0.4,0.5,0.8,0.8,1.2l-0.3-0.2c0.4,0.7,0.8,0.9,0.7,0.9c-0.1-0.1-0.3-0.2-0.4-0.4c-0.2-0.2-0.3-0.4-0.5-0.6
		c0.1,0.1,0.2,0.3,0.3,0.4c-0.6-0.7-0.2-0.4-0.7-1.3c0,0.3,0-0.1-0.3-0.5c0,0.2,0.2,0.6,0.4,0.9c0.2,0.3,0.3,0.6,0.2,0.5
		c-0.4-0.5-0.6-1.4-0.9-2.1c0.1,0,0.2-0.1,0.2-0.1l0,0c1.3-0.3,1.7-0.4,2.2-0.6c0.7-0.1,1.1-0.2,1.5-0.2l0,0l0.5-0.1
		c-0.2,0.1-0.6,0.1-1.1,0.1l0.1,0.1c-0.2,0-0.2,0-0.4,0c-0.2,0-0.4,0.1-0.5,0.1c-0.3,0.1-0.6,0.2-0.9,0.3c0.4-0.1,1.2-0.2,1.6-0.3
		c0.4-0.1,0.7-0.1,0.7-0.2l0.4,0l0.2,0c0.3,0,0,0.1-0.5,0.2c-0.1,0-0.1,0-0.1,0l-0.4,0.1l-0.3,0.1l-0.5,0.1l0.5-0.1
		c-1.1,0.2-2.1,0.4-2.4,0.5c0.8-0.2,1.5-0.3,2.3-0.4l1.5-0.2c0.3-0.2,0.6-0.3,0.7-0.5c0.7-0.1,1.5-0.2,2.1-0.2l-0.1,0
		c0.3,0,0.5,0,0.7-0.1c0.3,0-0.2,0.1,0,0.1l0.9-0.1c-0.1,0.1-0.8,0.1-1.2,0.2c0.1,0,0.2,0,0.2,0c-0.4,0-1.2,0.2-1.4,0.1
		c-0.2,0,0.4-0.1-0.3-0.1c-0.5,0-0.6,0.1-0.7,0.1c0,0,0.8,0,0.5,0.1c0.4,0,0.5-0.1,1-0.1c-0.4,0-0.9,0.2-1.1,0.1
		c-0.7,0.1-0.6,0.3-0.2,0.3c-0.1-0.1,1.3-0.2,0.4-0.2c0.4-0.1,1.2-0.2,1.8-0.3l0,0l0.7-0.1c-0.1,0-0.3,0.1-0.3,0.1l1-0.2
		c-0.5,0.1,0.3,0,0.6,0c0.1-0.1,0.5-0.1,0.1-0.1c-0.4,0-0.2,0.1-0.6,0.1l0.5-0.1l0,0l0.3-0.1c0.7,0-0.3,0.2,0.6,0.1l-0.1-0.1
		c1.1-0.1,2.4-0.1,3.1-0.2c-0.2,0.1-0.3,0.2,0,0.2c-0.3,0-1,0.1-1.4,0.1c-0.1,0,0.6-0.2,1.1-0.2c-0.3-0.1-1.2,0.2-1.3,0
		c-1.3,0-0.9,0.2-2,0.2c0,0.1-0.3,0.1-0.4,0.1c0.3,0.1,1.4-0.1,2.2-0.1c-0.1,0-0.2,0-0.2,0.1c0.5,0,0.7-0.1,1-0.1l0,0
		c0.6-0.1,0.4,0,0.7,0c0.1,0,0.6-0.1,0.5-0.1l0.7,0l0-0.1c0.4,0,0.5,0,0.8-0.1v-0.1l-0.9,0.1c0.5-0.1,0.1-0.1,0.6-0.2
		c-0.5,0.2,0.4,0,0.5,0.1l0.4-0.1l-0.1,0c0.3,0,0.3-0.1,0.7-0.1c-0.4,0-0.7,0-1.2,0.1c0.4-0.1,1.1-0.2,1.2-0.3
		c0.4-0.1,0.6-0.1,1-0.1c-0.7,0.1,0.3,0.2-1.1,0.4c0,0,0.1,0,0.2,0c-0.2-0.1-0.8,0.1-1.1,0.2c0.1,0-0.2,0.1,0.3,0.1
		c-0.2,0,0.4-0.2,0.9-0.2l0,0.1l0.7-0.1l-0.1,0c0.3,0,0.8-0.2,1.3-0.2c0.3-0.1,1.7-0.5,1.1-0.4c0.5-0.1,0.8-0.3,1.2-0.5l-0.6,0.2
		c0.6-0.3,0.4-0.2,0.8-0.5c0.1,0,0.2,0,0.1,0.1l0.3-0.1l0.4-0.2c0.2-0.1,0.5-0.2,0.7-0.3c0.4-0.2,0.8-0.5,1-0.7
		c0.5-0.3,0.7-0.3,1.3-0.9c0.1-0.1-0.2,0,0.2-0.3c0,0-0.3,0.4,0.1,0c0.2-0.4,0.7-0.7,0.9-1.2c0.2-0.2,0.4-0.7,0.5-0.6
		c-0.2,0.4-0.6,1-0.6,1c0-0.1-0.2,0.2-0.1,0c-0.5,0.5-0.2,0.4-0.7,0.8c0,0.1,0.3-0.2,0.4-0.3c0.1,0.1-0.8,1-0.3,0.6
		c0.5-0.5,0.4-0.8,0.9-1.2c-0.1,0.2-0.3,0.5-0.4,0.8c0.1-0.1,0.2-0.2,0.4-0.4l0.1-0.3l0,0c0.6-0.7,0.3-0.7,0.6-1.4
		c-0.3,0.4-0.2-0.2-0.4,0.1c0.2-0.5,0.4-0.8,0.5-0.8c-0.3,0.9,0.1,0.1-0.2,0.9c0.1-0.1,0.1,0.2,0.3-0.2c0.2-0.6-0.2,0.1,0.1-0.4
		c0,0,0.1-0.1,0.1,0c0.1-0.3,0.2-0.3,0.2-0.6l0,0.1c0.2-0.4,0.1-0.4,0.3-0.8c-0.1,0.1,0-0.2,0.1-0.5c-0.2,0.3-0.4,0.5-0.7,1.1
		c0,0.1,0.1,0.1,0,0.3l0.2-0.4l-0.1,0.3l-0.2,0.4c0.2-0.5,0-0.3,0-0.6c0.2-0.5,0.2-0.4,0.3-0.7c0.1,0.1,0.6-0.9,1-1.4l-0.1,0.3
		c-0.2,0.4,0.2-0.2,0.3-0.3l0.1-0.3c0,0.1,0,0.1,0,0c0.2-0.4,0.1-0.4,0.4-0.8c0.1,0-0.1,0.4,0.1,0.1c0.1-0.1,0.4-0.3,0.8-0.7
		c0,0,0.1-0.2,0.3-0.3l0,0.1c0.1-0.1,0.2-0.2,0.4-0.2c-0.2,0.3-0.6,0.5-0.8,0.8l0.1,0.1c-0.2,0.2-0.4,0.5-0.4,0.7
		c0.3-0.3,0.3-0.4,0.6-0.8c0.1,0-0.1,0.2-0.1,0.3l0-0.1c-0.4,0.4-0.4,0.7-0.8,1.2c-0.1,0.1,0,0,0,0c-0.2,0.5-0.5,0.9-0.6,1.4l0-0.2
		l-0.5,1.6l0,0c0.1-0.1-0.1,0.2-0.1,0.3l0,0c-0.1,0.3-0.2,0.6-0.3,0.9c0.1-0.1,0.1-0.2,0.2-0.3c0-0.1,0.3-0.7,0.2-0.6
		c0.2-0.2,0.3-0.7,0.4-0.9c-0.2,0.3,0-0.3,0-0.3c0.1-0.1,0.2-0.5,0.3-0.4c0.1-0.1-0.1,0.2-0.1,0.3c-0.1,0.4,0.4-0.6,0.2-0.2
		c0.2-0.6,0.6-1.3,0.9-1.9l-0.2,0.3c0.2-0.2,0.5-0.8,0.6-0.8c-0.1,0.2-0.3,0.4-0.4,0.6c0.1,0,0.4-0.5,0.5-0.5
		c0.1-0.2,0.3-0.5,0.4-0.7l-0.3,0.3c0.1-0.2,0.7-0.7,1.2-1c-0.2,0.3-0.7,0.5-1.1,1c-0.2,0.3,0.3-0.1,0,0.2c0.1-0.1,0.3-0.2,0.3-0.4
		l0.1-0.1c-0.2,0.3-0.7,0.9-0.9,1.3c0,0,0-0.1,0-0.1c-0.3,0.3-0.5,0.7-0.6,1c0.1-0.2,0.1-0.2,0.2-0.3c0,0-0.1,0.3-0.2,0.4
		c0.2-0.3,0.1,0,0.2-0.2c-0.1,0.2-0.2,0.4-0.3,0.6c-0.1,0.1,0-0.1-0.1-0.1c-0.1,0.3-0.3,0.4-0.4,0.8c0.3-0.5,0.1,0.2,0,0.4l0-0.1
		c0,0.2-0.1,0.3-0.2,0.4c0.1-0.2,0.2-0.4,0.1-0.4c-0.1,0.1-0.1,0.3-0.2,0.5l0-0.2l-0.3,0.7c0,0.1,0,0.4,0,0.5
		c-0.1,0.2-0.2,0.4-0.3,0.6l0-0.1c-0.2,0.3-0.7,1-0.7,1.1c-0.2,0.2,0.8-1.7-0.3-0.1c-0.4,0.6-0.1,0.4-0.4,0.8c0,0,0,0,0,0
		c-0.2,0.2-0.2,0.3-0.4,0.5c0.2-0.1,0.4-0.3,0.4-0.4c0,0.1-0.5,0.5-0.6,0.7c0.2-0.3-0.5,0.4-0.4,0.2c-0.6,0.4-1.1,0.9-1.4,1.1
		c-0.5,0.1-0.7,0.4-1.4,0.7c0.1,0,0.3-0.2,0.4-0.2c0.3-0.3-0.7,0.3-0.2,0c-0.1,0.1,0,0,0.1,0c0.2-0.1,0.4-0.3,0.3-0.3
		c-0.2,0.1-0.4,0.2-0.6,0.2l0.2-0.1c-0.3,0.1-0.6,0.2-0.9,0.3c0,0,0.1,0,0.1,0c-0.9,0.5-2.2,0.9-3.1,1.1c-0.1,0.3-2.3,0.6-3,0.8
		c0.2-0.1,0.3-0.2,0.1-0.2c0.2,0,0.5-0.2,0.9-0.2c0.1,0,0.6,0,0.3,0.1c1.1-0.2-0.2-0.1,0.1-0.2c-1.2,0.2-1.8,0.4-2.6,0.6l0,0
		l-0.6,0.1c0.5,0,0.5,0.1-0.1,0.1l0.1,0c-0.3,0-1,0.1-1.6,0.2l-0.3,0.1c-0.5,0-0.6-0.1-0.8-0.1c-0.8,0.1-1.3,0.2-1.9,0.3
		c-0.3,0-1.5,0-0.9-0.1c-0.7,0.1-0.6,0.4-1.8,0.3l0.3-0.1c-1.2,0.1-2.9,0.4-3.5,0.4c0.2-0.1-0.2-0.1-0.6-0.1c-0.4,0-0.7,0-0.9-0.1
		c0.1,0-0.2,0.1-0.2,0.1c-0.1,0-0.2,0-0.3,0.1l0,0l0,0c0.3,0,0.1,0.2,0.5,0c0,0.1-0.1,0.1-0.1,0.2c0.1,0.1,0.3,0.3,0.3,0.5l-0.1,0
		c0-0.1-0.1-0.2-0.1-0.3c-0.1,0-0.1-0.1-0.2-0.2c0.1,0.3,0,0.3-0.1,0.2c-0.1,0-0.1-0.1,0.1,0.3c0.1,0.1,0.1,0,0.2,0.2
		c-0.1-0.1-0.1-0.1,0,0.1c0.1,0,0.1,0.1,0.2,0.1c0.1,0.2-0.1,0.1-0.2,0c-0.1-0.1-0.2-0.2-0.2-0.1c-0.3-0.3-0.7-0.9-0.8-0.8
		c0.3,0.7,0.5,0.6,0.9,1.1l0,0.1c0.2,0.2,0.3,0.2,0.5,0.3c0,0,0,0.1,0.2,0.2c0.5,0.3,0.8,0.5,1.2,0.7c-1.1-0.8-0.8-0.8-1.7-1.6
		c0.1,0.1,0.8,0.8,0.9,0.7l-0.1,0c0.3,0.3,0.7,0.5,1.1,0.9l-0.3-0.2c0.6,0.4,0.9,0.8,1.5,1.1c-0.2-0.1-0.3-0.2-0.4-0.3
		c0.3,0.2,0.7,0.5,1.1,0.8c0.3,0.2,0.5,0.3,0.8,0.5c0,0,0.4,0.5,0.1,0.3c0.4,0.5,0.7,0.8,0.9,1.2c0.1,0.4,0,0.2-0.1,0
		c-0.1-0.2-0.3-0.5-0.4-0.5c0.3,0.4,0.5,0.9,0.5,1.4c0,0.5-0.1,0.9-0.2,1.2c0.1-0.2,0.2-0.3,0.2-0.3c0,0-0.2,0.4-0.3,0.6l0,0.2
		c-0.3,0.3-0.3,0.2-0.1-0.1c-0.2,0.3-0.4,0.7-0.8,0.8c0.4-0.4,0.9-1,1-1.3c-0.3,0.6-0.6,0.8-0.8,1l-1.2,0.9c0,0,0.1-0.2-0.1,0
		c-0.6,0.4-0.1,0.2-0.2,0.3c0.4-0.3,0.6-0.4,0.9-0.6l-0.1,0.1c0,0-0.3,0.2-0.4,0.2l0,0.1c0-0.1-0.5,0.2-0.9,0.4
		c0.4-0.2,0.3-0.1,0.5-0.1c-0.2,0.2-0.4,0.3-0.5,0.3c-0.1,0-0.2,0.1-0.3,0.1c0,0,0,0,0,0l-0.2,0.2c0,0,0.2-0.2,0.2-0.2c0,0,0,0,0,0
		c0,0,0,0-0.1,0.1c-0.4,0.3-0.3,0.3-0.5,0.5c0.2-0.2,0.1-0.2,0.4-0.5c0.2-0.1,0.2-0.1,0.2-0.2l0.1-0.1l0.4-0.3l-0.6,0.3
		c0.5-0.3,0.3-0.3,0.3-0.3c-0.2,0.1-0.4,0.2-0.5,0.3c0,0-0.1,0.1-0.2,0.2c-0.1,0.1-0.1,0.2-0.5,0.4c-0.3,0.2,0.6-0.3,0.2,0
		c-0.6,0.3-0.1,0.1-0.8,0.5l0.1-0.1c-0.2,0.1-0.4,0.2-0.7,0.3c-0.3,0.1,0.5,0.2-0.8,0.5c0.1,0,0.1-0.1,0.1-0.1
		c0.3-0.3,0.6-0.6,0.8-1c-1.1,0.5-2.5,0.7-3.9,0.7c-0.3-0.1,1-0.2,0.9-0.2c0.2,0,0.4,0,0.6-0.1c0,0.1-1.3,0.2-0.7,0.2
		c1.1-0.2,1.6-0.2,2.5-0.6c-0.3,0-1.3,0.4-2,0.4c0.3,0,0.5-0.1,0.7-0.2c-0.6,0.1-1.3,0.2-2,0.2l-0.2,0l0.9,0
		c-0.6,0.1-1.2,0.1-1.2,0.2l0.1,0l-0.2,0L135.6,187.8z M94.1,186.8C94.2,186.8,94.2,186.8,94.1,186.8
		C94.2,186.8,94.2,186.8,94.1,186.8z M144.8,182.3c0.2,0.6-0.1,1.3-0.6,1.8c0.5-0.4,0.8-0.9,0.9-1c0.1-0.1,0.2,0.3-0.5,1.1l-0.1,0.1
		c0.2-0.2,0.6-0.6,0.7-1c0-0.2,0-0.6-0.2-0.9c-0.2-0.3-0.4-0.5-0.4-0.5C144.6,182.1,144.7,182.2,144.8,182.3L144.8,182.3z
		 M144.9,181.7c-0.2-0.4-0.2-0.3-0.3-0.3C144.7,181.6,144.8,181.7,144.9,181.7C144.9,181.8,144.9,181.7,144.9,181.7z M144.6,181.5
		C144.6,181.5,144.7,181.5,144.6,181.5L144.6,181.5z M139.7,187.1L139.7,187.1c-0.1,0-0.2,0-0.3,0.1
		C139.5,187.2,139.6,187.2,139.7,187.1z M140.7,186.9l0.1-0.1c-0.1,0-0.2,0.1-0.3,0.1C140.5,186.9,140.6,186.9,140.7,186.9z
		 M143.4,185.5c0.1-0.2,0.6-0.6,0.5-0.7c0,0-0.1,0-0.2,0.1c-0.1,0.1-0.3,0.2-0.4,0.3c0,0,0,0-0.1,0.1c0.2-0.1,0.3-0.2,0.3-0.1
		c-0.5,0.2-0.3,0.3-0.7,0.6C142.7,186,143.3,185.6,143.4,185.5z M164,168.9c0,0,0.1,0,0.1-0.1l-0.2,0.3c-0.4,0.5-0.9,0.8-1.2,1.2
		c-0.2,0.2-0.4,0.2-0.5,0.3l0.3-0.2c0.5-0.6,0.7-0.7,0.8-0.8C163.6,169.5,163.7,169.4,164,168.9z M157.9,172.8
		C158,172.8,158,172.8,157.9,172.8c-1.2,0.6-2.5,0.9-3.3,1c0.2,0,0.9,0,1.3-0.1l-0.3,0.1l-0.2,0l-0.5,0.2c0.2,0,0.6-0.1,0.9-0.1
		c0,0,0.9-0.3,1.2-0.4c-0.2,0-0.5,0.1-0.7,0.1c0.2,0,1.2-0.3,1.5-0.4c0,0-0.7,0.1-0.7,0.2c-0.1,0,0.6-0.3,0.2-0.2
		c0.5-0.2,1.4-0.5,1.8-0.6l0.1,0.1c0.4-0.2,0.2-0.2,0.7-0.4c-0.6,0.3,0.2,0-0.3,0.3c0.2,0,0.1,0.1,0.5-0.1c0.3-0.3,0.6-0.2,0.9-0.5
		c0.3-0.1-0.2,0.2,0.3,0c0.5-0.4,0.4-0.4,0.4-0.5c-0.5,0.3-0.5,0.4-0.9,0.7c0.3-0.2,0.5-0.4,0.7-0.6c-0.2,0.1-0.3,0.1-0.4,0.2
		c0.2-0.1,0.3-0.2,0.4-0.3l0.1-0.2c-0.4,0.3-0.9,0.5-1,0.5l0-0.1c-0.2,0.1-0.4,0.2-0.6,0.3c-0.4,0.2-0.8,0.5-1,0.5l0.1-0.1
		C158.7,172.6,158.6,172.6,157.9,172.8z M138.8,176.3c0-0.1,0-0.2,0-0.3c0-0.1,0-0.1,0-0.2l0-0.1c0,0,0-0.1,0.1-0.1
		c0.4,0,0.8-0.1,1.4-0.2l-0.1,0c0.8,0,1.7-0.4,2.7-0.4c-0.5,0.1-0.5,0.1-1,0.3l0.5-0.1c-0.1,0.1,0.4,0,0.8,0l-0.3,0.1
		c-0.3,0-0.9,0.1-0.9,0.1c0.1,0-0.9,0-1.4,0.1c0.1,0.1,1.2-0.1,0.7,0.1c0.4-0.1,0.5,0,1-0.1c-0.4,0.1-0.1,0.1-0.4,0.2l0.7-0.1
		c0,0-1.1,0.2-0.5,0.2c0.3-0.1,1.1-0.1,1.1-0.2l0,0c0.6,0,0.2-0.1,0.9-0.1c0,0-0.1-0.1-0.4,0c-0.2,0-0.2,0.1-0.7,0.1
		c-0.2,0,0.5,0,0.2-0.1c-0.2,0-1.1,0.2-0.8,0l0.6,0c0-0.1,0.4-0.1,0.4-0.2c0.3-0.1,0.7,0,1-0.1c0.1-0.1-0.1-0.1,0.5-0.1
		c0.5,0.1,1.8,0,2.3-0.1l0.4-0.1c0,0-0.9,0.1-0.6,0l0.7-0.1l0,0c0.2,0,0.5-0.1,0.7-0.1c-0.2,0.1-0.7,0.1-0.6,0.2c0.3,0,0.4,0,0.7,0
		c-0.1,0-0.1,0-0.1,0c0.7,0,0.6-0.1,0.8-0.2c0.7-0.2-0.7,0-0.6-0.1l1.9-0.2c-0.2,0-0.3,0.1-0.3,0.1c0.5,0,0,0.1,0.7,0
		c-0.1-0.1,0.8-0.2,1.3-0.3c0.2,0,0.3,0-0.2,0.1c0.1,0.1,0.7,0,0.9-0.1l0.5-0.1c-0.2,0-0.1-0.1,0.3-0.2l0,0
		c-0.7,0.1-1.7,0.1-2.2,0.3l0.1,0c-0.8,0-1.7,0.3-2.1,0.2c0-0.1-0.2,0-0.2-0.1l-0.6,0.1l0.1,0l-1,0.1l0,0l-1.1,0.3c0,0,0,0-0.1,0.1
		c-0.2,0-0.3,0-0.4,0l0,0l0,0c-0.2,0-0.4,0-0.7,0l0.9-0.1c0.1-0.1,0-0.1-0.5-0.1c0.2,0,0.3-0.1,0-0.1c0,0-0.6,0.1-0.4,0.1
		c-0.9,0.1-2.3,0-3.6,0.3c0.9-0.2-0.8,0,0.3-0.1c-0.8,0-0.6,0.2-1.4,0.2c-0.1,0,0.4,0,0.6-0.1c-1.1,0.1-2.1,0.4-3.3,0.7
		c-0.1,0,0,0.1,0,0.2l-0.1,0C138.5,175.8,138.6,176,138.8,176.3z M140.3,178c0.2,0.1,0.3,0.3,0.5,0.4l0,0l0.5,0.4
		c-0.3-0.3-0.4-0.5,0-0.2c-0.1,0,0,0.1-0.1,0c0.2,0.3,0.9,0.8,0.8,0.6c-0.7-0.4,0-0.2-0.5-0.5c0.3,0.1,0.5,0.3,0.8,0.5
		c-0.3-0.1-0.1,0.1,0.3,0.4c0.2,0.1,0.6,0.4,0.9,0.6c0-0.1,0.2,0-0.2-0.3c0.2,0.1,0.4,0.3,0.6,0.5c-0.1-0.1-0.3-0.2-0.3-0.2
		c0.1,0.2,0.3,0.3,0.4,0.5l0.2,0.2c0,0,0-0.1,0-0.1l0.3,0.2c-0.4-0.3-0.1-0.2-0.1-0.2c-0.1,0,0.2,0.2,0.3,0.4
		c-0.1-0.1-0.1-0.2-0.2-0.3c0.2,0.1,0.4,0.5,0.4,0.4c-0.5-0.6-0.7-0.8-1.3-1.3l0.2,0.2c-0.7-0.5-0.3-0.4-1-0.9
		c-0.3-0.2-1.1-0.8-1.2-0.7c0.1,0-0.3-0.4-0.6-0.6c-0.4-0.1-1-0.8-0.9-0.6c0.2,0.2,0.5,0.4,0.6,0.6l-0.4-0.3l0.2,0.3
		C140.3,177.8,140.3,177.9,140.3,178z M141.2,185.5L141.2,185.5L141.2,185.5L141.2,185.5z"/>
	<path id="XMLID_2_" class="st2" d="M172.8,48c-4.9-3-8.8-2.7-10.1-0.7c-0.6,1-3.5,5.6-4.5,7.1h0l-2.1,3.3l-9.6,15.3l-48.3,77.1
		l-4.6,7.4l0,0l-1.6,2.6l0,0l-0.1,0.2l-0.8,4.1l-1.6,7.3l0,0l-2.9,13.4l11.1-7.8l0,0l6.7-4.7l2.3-1.5l0.5-0.8l5.4-8.6l59.3-94.5
		l0.5-0.8l0,0l1.2-2l0,0l0.4-0.6c0,0,0,0,0,0c0.9-1.3,2.2-3.5,4.5-7.1C179.7,54.8,178.1,51.2,172.8,48z"/>
</g>
<g id="Layer_4" class="st1">
	<g id="XMLID_16_" class="st3">
		<path id="XMLID_17_" d="M203.7,160H68.3c-3.1,0-5.5-2.4-5.5-5.5V67.1c0-3.1,2.4-5.5,5.5-5.5H81l0,0c0-1.8,1.5-3.3,3.3-3.3h12.7
			c1.8,0,3.3,1.5,3.3,3.3l0,0h21c2-4.2,6.3-12.9,10.3-12.9c5.2,0,37.8,0,42.5,0c3.6,0,8.1,8.6,10.1,12.9h19.7c3.1,0,5.5,2.4,5.5,5.5
			v87.4C209.2,157.5,206.8,160,203.7,160z M104.8,85.4c0-3.1-2.4-5.5-5.5-5.5H82.8c-3.1,0-5.5,2.4-5.5,5.5v1.1
			c0,3.1,2.4,5.5,5.5,5.5h16.4c3.1,0,5.5-2.4,5.5-5.5V85.4z M152.1,79.9c-17.7,0-32.2,14.3-32.2,32.2c0,17.7,14.5,32.1,32.2,32.1
			s32.2-14.3,32.2-32.1C184.3,94.2,170,79.9,152.1,79.9z M152.3,136.9c-13.7,0-24.9-11.1-24.9-24.9c0-13.7,11.1-24.9,24.9-24.9
			c13.8,0,24.9,11.1,24.9,24.9S165.9,136.9,152.3,136.9z"/>
	</g>
</g>
<g id="Layer_3">
	<path id="XMLID_37_" class="st4" d="M199.2,139.5c-11.8,0-21.4-9.6-21.4-21.4c0-11.8,9.6-21.4,21.4-21.4c11.8,0,21.4,9.6,21.4,21.4
		C220.6,129.9,211,139.5,199.2,139.5z M199.2,107.8c-5.7,0-10.3,4.6-10.3,10.3s4.6,10.3,10.3,10.3c5.7,0,10.3-4.6,10.3-10.3
		C209.4,112.4,204.8,107.8,199.2,107.8z M114.2,147c-0.4-3,1.8-5.8,4.8-6.2l0,0c3-0.4,5.8,1.8,6.2,4.8l0,0l0,0l0,0
		c0.4,3.1-1.8,5.8-4.8,6.2l0,0c-0.2,0-0.5,0-0.7,0l0,0C117,151.9,114.5,149.8,114.2,147z M110.6,129.8L110.6,129.8
		c-0.9-2.9,0.8-6,3.7-6.9l0,0c2.9-0.9,6,0.8,6.9,3.7l0,0c0.9,2.9-0.8,6-3.7,6.9l0,0c-0.5,0.2-1.1,0.2-1.6,0.2l0,0
		C113.5,133.8,111.3,132.2,110.6,129.8z M104.1,113.5L104.1,113.5c-1.4-2.7-0.2-6.1,2.5-7.5l0,0c2.8-1.4,6.1-0.3,7.5,2.5l0,0l0,0
		l0,0c1.4,2.7,0.2,6.1-2.5,7.5l0,0c-0.8,0.4-1.6,0.6-2.5,0.6l0,0C107,116.6,105.1,115.4,104.1,113.5z M94.9,98.5L94.9,98.5
		c-1.8-2.5-1.3-6,1.2-7.8l0,0c2.5-1.8,6-1.3,7.8,1.2l0,0c1.8,2.5,1.3,6-1.2,7.8l0,0c-1,0.7-2.1,1.1-3.3,1.1l0,0
		C97.7,100.7,96,99.9,94.9,98.5z M83.4,85.2c-2.2-2.2-2.2-5.7-0.1-7.9l0,0c2.1-2.2,5.7-2.2,7.9-0.1l0,0c2.2,2.2,2.2,5.7,0.1,7.9l0,0
		c-1.1,1.1-2.5,1.7-4,1.7l0,0C85.9,86.7,84.5,86.2,83.4,85.2z M69.9,73.9c-2.5-1.7-3.2-5.2-1.4-7.7l0,0c1.8-2.5,5.2-3.2,7.8-1.4l0,0
		c2.5,1.8,3.2,5.2,1.4,7.8l0,0c-1.1,1.6-2.8,2.4-4.6,2.4l0,0C71.9,74.9,70.8,74.6,69.9,73.9z M54.6,65.2c-2.8-1.3-4-4.6-2.7-7.4l0,0
		c1.3-2.8,4.6-4,7.4-2.7l0,0c0,0,0,0,0,0l0,0c2.8,1.3,4,4.6,2.7,7.4l0,0c-0.9,2-2.9,3.2-5,3.2l0,0C56.2,65.7,55.4,65.5,54.6,65.2z
		 M116.6,164.1c-2.2-2.2-2.2-5.7,0-7.9l0,0l0,0l0,0c2.2-2.2,5.7-2.2,7.9,0l0,0c2.2,2.2,2.1,5.7,0,7.9l0,0c-1.1,1.1-2.5,1.6-3.9,1.6
		l0,0C119.2,165.8,117.7,165.2,116.6,164.1z M130.2,151.5c-1.8-2.5-1.2-6,1.3-7.8l0,0c2.5-1.8,6-1.1,7.8,1.4l0,0
		c1.8,2.5,1.2,6-1.3,7.8l0,0c-1,0.7-2.1,1-3.2,1l0,0C133,153.9,131.3,153,130.2,151.5z M145.8,141.3c-1.3-2.8-0.2-6.1,2.6-7.4l0,0
		c2.8-1.3,6.1-0.2,7.4,2.6l0,0c1.3,2.8,0.1,6.1-2.6,7.4l0,0c-0.8,0.4-1.6,0.5-2.4,0.5l0,0C148.7,144.5,146.7,143.3,145.8,141.3z
		 M162.7,133.9c-0.8-2.9,0.9-6,3.8-6.9l0,0l0,0l0,0c2.9-0.9,6,0.9,6.9,3.8l0,0c0.9,2.9-0.9,6-3.8,6.9h0c-0.5,0.1-1,0.2-1.5,0.2l0,0
		C165.7,137.9,163.4,136.3,162.7,133.9z"/>
</g>
</svg>
